<?xml version="1.0" encoding="UTF-8" standalone="no"?>
<svg
   xmlns:dc="http://purl.org/dc/elements/1.1/"
   xmlns:cc="http://creativecommons.org/ns#"
   xmlns:rdf="http://www.w3.org/1999/02/22-rdf-syntax-ns#"
   xmlns:svg="http://www.w3.org/2000/svg"
   xmlns="http://www.w3.org/2000/svg"
   xmlns:sodipodi="http://sodipodi.sourceforge.net/DTD/sodipodi-0.dtd"
   xmlns:inkscape="http://www.inkscape.org/namespaces/inkscape"
   height="100px"
   width="100px"
   fill="#E6DA00"
   version="1.1"
   x="0px"
   y="0px"
   viewBox="0 0 512 512"
   style="enable-background:new 0 0 512 512;"
   xml:space="preserve"
   id="svg947"
   sodipodi:docname="noun_Hazard_2307622.svg"
   inkscape:version="0.92.4 (5da689c313, 2019-01-14)"><metadata
     id="metadata953"><rdf:RDF><cc:Work
         rdf:about=""><dc:format>image/svg+xml</dc:format><dc:type
           rdf:resource="http://purl.org/dc/dcmitype/StillImage" /></cc:Work></rdf:RDF></metadata><defs
     id="defs951" /><sodipodi:namedview
     pagecolor="#ffffff"
     bordercolor="#666666"
     borderopacity="1"
     objecttolerance="10"
     gridtolerance="10"
     guidetolerance="10"
     inkscape:pageopacity="0"
     inkscape:pageshadow="2"
     inkscape:window-width="696"
     inkscape:window-height="480"
     id="namedview949"
     showgrid="false"
     inkscape:zoom="2.36"
     inkscape:cx="42.584746"
     inkscape:cy="50"
     inkscape:window-x="0"
     inkscape:window-y="0"
     inkscape:window-maximized="0"
     inkscape:current-layer="svg947" /><g
     id="g945"
     style="opacity:0.75"
     inkscape:export-xdpi="100"
     inkscape:export-ydpi="100"><g
       id="g943"
       style=""><path
         d="M256.256,255.054c-10.921,0-19.807,8.869-19.807,19.77c0,10.922,8.885,19.807,19.807,19.807    c10.901,0,19.77-8.885,19.77-19.807C276.025,263.923,267.157,255.054,256.256,255.054z"
         id="path933"
         style="" /><path
         d="M256.019,154.324c21.17,0,38.395-17.253,38.395-38.46c0-21.171-17.225-38.394-38.395-38.394    c-21.207,0-38.46,17.223-38.46,38.394C217.559,137.071,234.812,154.324,256.019,154.324z"
         id="path935"
         style="" /><path
         d="M158.212,354.901c0-21.218-17.263-38.481-38.481-38.481c-21.183,0-38.416,17.264-38.416,38.481    c0,21.219,17.233,38.481,38.416,38.481C140.949,393.383,158.212,376.12,158.212,354.901z"
         id="path937"
         style="" /><path
         d="M359.572,217.359c-1.488-0.137-2.82-0.978-3.582-2.262c-0.762-1.285-0.863-2.857-0.27-4.228    c6.023-13.929,9.078-28.648,9.078-43.748c0-31.107-13.416-60.476-36.068-80.903c3.951,9.332,6.033,19.396,6.033,29.63    c0,42.63-35.318,77.312-78.73,77.312c-43.464,0-78.826-34.682-78.826-77.312c0-10.204,2.096-20.274,6.072-29.638    c-22.674,20.455-36.105,49.83-36.105,80.911c0,15.171,3.082,29.881,9.161,43.723c0.603,1.372,0.508,2.95-0.252,4.241    c-0.761,1.291-2.096,2.136-3.588,2.273c-51.396,4.718-91.248,43.981-97.756,93.873c14.373-20.717,38.434-33.643,64.978-33.643    c43.464,0,78.825,34.682,78.825,77.312c0,37.705-27.663,69.192-64.128,75.966c9.088,2.436,18.5,3.663,28.156,3.663    c35.683,0,69.191-17.605,89.635-47.093c0.87-1.256,2.301-2.005,3.829-2.005c0.002,0,0.003,0,0.005,0    c1.529,0.002,2.961,0.754,3.83,2.013c20.346,29.483,53.852,47.085,89.627,47.085c9.51,0,18.986-1.264,28.102-3.712    c-36.293-6.874-63.787-38.301-63.787-75.917c0-42.63,35.316-77.312,78.729-77.312c26.318,0,50.293,12.73,64.723,33.133    C450.549,261.073,410.795,222.061,359.572,217.359z M256.256,303.95c-16.06,0-29.126-13.066-29.126-29.127    c0-16.04,13.066-29.088,29.126-29.088c16.039,0,29.09,13.048,29.09,29.088C285.346,290.884,272.295,303.95,256.256,303.95z"
         id="path939"
         style="" /><path
         d="M392.555,316.428c-21.178,0-38.408,17.259-38.408,38.474s17.23,38.475,38.408,38.475    c21.215,0,38.475-17.26,38.475-38.475S413.77,316.428,392.555,316.428z"
         id="path941"
         style="" /></g></g></svg>