<?xml version="1.0" encoding="UTF-8" standalone="no"?>
<svg
   xmlns:x="adobe:ns:meta/"
   xmlns:dc="http://purl.org/dc/elements/1.1/"
   xmlns:cc="http://creativecommons.org/ns#"
   xmlns:rdf="http://www.w3.org/1999/02/22-rdf-syntax-ns#"
   xmlns:svg="http://www.w3.org/2000/svg"
   xmlns="http://www.w3.org/2000/svg"
   xmlns:sodipodi="http://sodipodi.sourceforge.net/DTD/sodipodi-0.dtd"
   xmlns:inkscape="http://www.inkscape.org/namespaces/inkscape"
   height="100px"
   width="100px"
   fill="#4CE600"
   version="1.1"
   x="0px"
   y="0px"
   viewBox="0 0 100 100"
   enable-background="new 0 0 100 100"
   xml:space="preserve"
   id="svg867"
   sodipodi:docname="noun_Military_2645219.svg"
   inkscape:version="0.92.4 (5da689c313, 2019-01-14)"><defs
     id="defs871" /><sodipodi:namedview
     pagecolor="#ffffff"
     bordercolor="#666666"
     borderopacity="1"
     objecttolerance="10"
     gridtolerance="10"
     guidetolerance="10"
     inkscape:pageopacity="0"
     inkscape:pageshadow="2"
     inkscape:window-width="696"
     inkscape:window-height="480"
     id="namedview869"
     showgrid="false"
     inkscape:zoom="6.03"
     inkscape:cx="50"
     inkscape:cy="50"
     inkscape:window-x="0"
     inkscape:window-y="0"
     inkscape:window-maximized="0"
     inkscape:current-layer="svg867" /><metadata
     id="metadata863"><?xpacket begin="&#65279;" id="W5M0MpCehiHzreSzNTczkc9d"?><x:xmpmeta
       x:xmptk="Adobe XMP Core 5.5-c014 79.151739, 2013/04/03-12:12:15        " /><?xpacket end="w"?><rdf:RDF><cc:Work
         rdf:about=""><dc:format>image/svg+xml</dc:format><dc:type
           rdf:resource="http://purl.org/dc/dcmitype/StillImage" /></cc:Work></rdf:RDF></metadata><path
     d="M78.3945313,82.0527344C78.2250977,81.7138672,77.8789063,81.5,77.5,81.5h-1.5739746L73.5,49.9614258V42.5v-14H75  c0.449707,0,0.84375-0.2998047,0.9638672-0.7329102c0.1196289-0.4331055-0.0639648-0.8935547-0.4492188-1.1245117l-25-15  c-0.3173828-0.1904297-0.7119141-0.1904297-1.0292969,0l-25,15c-0.3852539,0.230957-0.5688477,0.6914063-0.4492188,1.1245117  C24.15625,28.2001953,24.550293,28.5,25,28.5h1.5v14v7.4614258L24.0739746,81.5H22.5  c-0.3789063,0-0.7250977,0.2138672-0.8945313,0.5527344l-2.5,5c-0.1547852,0.3100586-0.1381836,0.6782227,0.0439453,0.9731445  C19.331543,88.3203125,19.6533203,88.5,20,88.5h10c0.3466797,0,0.668457-0.1796875,0.8505859-0.4741211  c0.1821289-0.2949219,0.1987305-0.6630859,0.0439453-0.9731445l-2.5-5C28.2250977,81.7138672,27.8789063,81.5,27.5,81.5h-1.420105  l1.3850098-18.005188c0.0118408,0.0004272,0.0227051,0.0056763,0.0346069,0.0056763  c0.0883789,0,0.1787109-0.012207,0.2680664-0.0371094L50,57.2877197l22.2324219,6.1756592  c0.0893555,0.0249023,0.1796875,0.0371094,0.2680664,0.0371094c0.0119019,0,0.0227661-0.005249,0.0346069-0.0056763L73.920105,81.5  H72.5c-0.3789063,0-0.7250977,0.2138672-0.8945313,0.5527344l-2.5,5c-0.1547852,0.3100586-0.1381836,0.6782227,0.0439453,0.9731445  C69.331543,88.3203125,69.6533203,88.5,70,88.5h10c0.0068359-0.0004883,0.0126953-0.0009766,0.0200195,0  c0.5522461,0,1-0.4477539,1-1c0-0.2285156-0.0766602-0.4394531-0.2060547-0.6079102L78.3945313,82.0527344z M46,43.5v-1v-1v-3h8v3v1  v1V49h-8V43.5z M27.6239014,61.4278564l0.7799072-10.1390991L46.2642822,56.25L27.6239014,61.4278564z M34.8357544,51H45h10  h10.1642456L50,55.2122803L34.8357544,51z M53.7357178,56.25l17.8604736-4.9612427l0.7799072,10.1390991L53.7357178,56.25z"
     id="path865"
     style="opacity:0.75"
     inkscape:export-filename="/Users/lpoirier/path865.png"
     inkscape:export-xdpi="114.70094"
     inkscape:export-ydpi="114.70094" /></svg>