<?xml version="1.0" encoding="UTF-8" standalone="no"?>
<svg
   xmlns:dc="http://purl.org/dc/elements/1.1/"
   xmlns:cc="http://creativecommons.org/ns#"
   xmlns:rdf="http://www.w3.org/1999/02/22-rdf-syntax-ns#"
   xmlns:svg="http://www.w3.org/2000/svg"
   xmlns="http://www.w3.org/2000/svg"
   xmlns:sodipodi="http://sodipodi.sourceforge.net/DTD/sodipodi-0.dtd"
   xmlns:inkscape="http://www.inkscape.org/namespaces/inkscape"
   height="100px"
   width="100px"
   fill="#9500E6"
   version="1.1"
   x="0px"
   y="0px"
   viewBox="0 0 99.998 100"
   enable-background="new 0 0 99.998 100"
   xml:space="preserve"
   id="svg865"
   sodipodi:docname="noun_Airport_2431.svg"
   inkscape:version="0.92.4 (5da689c313, 2019-01-14)"><metadata
     id="metadata871"><rdf:RDF><cc:Work
         rdf:about=""><dc:format>image/svg+xml</dc:format><dc:type
           rdf:resource="http://purl.org/dc/dcmitype/StillImage" /></cc:Work></rdf:RDF></metadata><defs
     id="defs869" /><sodipodi:namedview
     pagecolor="#ffffff"
     bordercolor="#666666"
     borderopacity="1"
     objecttolerance="10"
     gridtolerance="10"
     guidetolerance="10"
     inkscape:pageopacity="0"
     inkscape:pageshadow="2"
     inkscape:window-width="1347"
     inkscape:window-height="744"
     id="namedview867"
     showgrid="false"
     inkscape:zoom="6.03"
     inkscape:cx="91.708126"
     inkscape:cy="50"
     inkscape:window-x="0"
     inkscape:window-y="0"
     inkscape:window-maximized="0"
     inkscape:current-layer="svg865" /><path
     d="M99.998,58.823v5.883l-41.176-5.883v23.528l11.766,11.766c0,2.942-2.941,5.883-5.884,5.883  c-11.763,0-29.411,0-29.411,0c-2.941,0-5.883-2.94-5.883-5.883l11.765-11.766V58.823L0,64.705v-5.882l41.176-23.529  c0,0,0-1.96,0-11.765C41.176,17.647,44.117,0,49.999,0s8.823,17.647,8.823,23.529c0,9.805,0,11.765,0,11.765L99.998,58.823z"
     id="path863"
     style="opacity:0.75"
     inkscape:export-xdpi="100"
     inkscape:export-ydpi="100" /></svg>