<?xml version="1.0" encoding="UTF-8" standalone="no"?>
<svg
   xmlns:dc="http://purl.org/dc/elements/1.1/"
   xmlns:cc="http://creativecommons.org/ns#"
   xmlns:rdf="http://www.w3.org/1999/02/22-rdf-syntax-ns#"
   xmlns:svg="http://www.w3.org/2000/svg"
   xmlns="http://www.w3.org/2000/svg"
   xmlns:sodipodi="http://sodipodi.sourceforge.net/DTD/sodipodi-0.dtd"
   xmlns:inkscape="http://www.inkscape.org/namespaces/inkscape"
   height="100px"
   width="100px"
   fill="#0073E6"
   version="1.1"
   x="0px"
   y="0px"
   viewBox="0 0 32 32"
   style="enable-background:new 0 0 32 32;"
   xml:space="preserve"
   id="svg4644"
   sodipodi:docname="noun_protect_3181561.svg"
   inkscape:version="0.92.4 (5da689c313, 2019-01-14)"><metadata
     id="metadata4650"><rdf:RDF><cc:Work
         rdf:about=""><dc:format>image/svg+xml</dc:format><dc:type
           rdf:resource="http://purl.org/dc/dcmitype/StillImage" /></cc:Work></rdf:RDF></metadata><defs
     id="defs4648" /><sodipodi:namedview
     pagecolor="#ffffff"
     bordercolor="#666666"
     borderopacity="1"
     objecttolerance="10"
     gridtolerance="10"
     guidetolerance="10"
     inkscape:pageopacity="0"
     inkscape:pageshadow="2"
     inkscape:window-width="835"
     inkscape:window-height="635"
     id="namedview4646"
     showgrid="false"
     inkscape:zoom="2.36"
     inkscape:cx="50"
     inkscape:cy="50"
     inkscape:window-x="281"
     inkscape:window-y="53"
     inkscape:window-maximized="0"
     inkscape:current-layer="svg4644" /><g
     id="g4642"
     style="opacity:0.75"
     inkscape:export-xdpi="100"
     inkscape:export-ydpi="100"><g
       id="g4640"
       style=""><circle
         cx="16"
         cy="14"
         r="1"
         id="circle4636"
         style="" /><path
         d="M26.84,8.01c-0.22,0.04-5.53,0.8-10.07-4.65c-0.38-0.46-1.16-0.46-1.54,0C10.69,8.81,5.38,8.05,5.16,8.01    C4.578,7.91,4,8.373,4,9c0,3.89,0,9.22,1.48,12.45c2.19,4.78,8.39,6.95,10.23,7.51c0.177,0.053,0.398,0.055,0.58,0    c1.84-0.56,8.04-2.73,10.23-7.51C28,18.22,28,12.89,28,9C28,8.407,27.48,7.922,26.84,8.01z M17,16.82V21c0,1.323-2,1.321-2,0    v-4.18c-1.16-0.42-2-1.52-2-2.82c0-1.65,1.35-3,3-3s3,1.35,3,3C19,15.3,18.16,16.4,17,16.82z"
         id="path4638"
         style="" /></g></g></svg>