<svg height='100px' width='100px'  fill="#24b9a3" xmlns="http://www.w3.org/2000/svg" viewBox="0 0 96 96" x="0px" y="0px"><title>Artboard 10</title><g><path d="M53,56h2v2H53Zm-8,2h2V56H45Zm18,0h2V56H63Zm8,0h2V56H71ZM81,72a1,1,0,0,1-1,1H16a1,1,0,0,1,0-2h1.0409l1.96-47.0415A1,1,0,0,1,20,23H35a1,1,0,0,1,.999.9585l.0032.0755-.0012.0075,1.9179,46.0308a1,1,0,0,0,.9981.9585l.043-.001a.9992.9992,0,0,0,.957-1.04l-.9342-22.4186,19.6608-7.5048A5.44,5.44,0,0,0,59,40c.006,0,.0109.0033.0168.0034a.9647.9647,0,0,1,.2289.0462.998.998,0,0,1,.1537.0357.9752.9752,0,0,1,.1429.0964.9888.9888,0,0,1,.1708.12,1.0168,1.0168,0,0,1,.0809.12.9669.9669,0,0,1,.1311.207c.0023.0057.0073.0092.01.015A5.3372,5.3372,0,0,0,60,41v6.4941l17.6123-7.416A1.0005,1.0005,0,0,1,79,41V71h1A1,1,0,0,1,81,72ZM49,55a1,1,0,0,0-1-1H44a1,1,0,0,0-1,1v4a1,1,0,0,0,1,1h4a1,1,0,0,0,1-1Zm8,0a1,1,0,0,0-1-1H52a1,1,0,0,0-1,1v4a1,1,0,0,0,1,1h4a1,1,0,0,0,1-1Zm10,0a1,1,0,0,0-1-1H62a1,1,0,0,0-1,1v4a1,1,0,0,0,1,1h4a1,1,0,0,0,1-1Zm8,0a1,1,0,0,0-1-1H70a1,1,0,0,0-1,1v4a1,1,0,0,0,1,1h4a1,1,0,0,0,1-1Z"></path></g></svg>