<?xml version="1.0" encoding="UTF-8" standalone="no"?>
<svg
   xmlns:i="http://ns.adobe.com/AdobeIllustrator/10.0/"
   xmlns:dc="http://purl.org/dc/elements/1.1/"
   xmlns:cc="http://creativecommons.org/ns#"
   xmlns:rdf="http://www.w3.org/1999/02/22-rdf-syntax-ns#"
   xmlns:svg="http://www.w3.org/2000/svg"
   xmlns="http://www.w3.org/2000/svg"
   xmlns:sodipodi="http://sodipodi.sourceforge.net/DTD/sodipodi-0.dtd"
   xmlns:inkscape="http://www.inkscape.org/namespaces/inkscape"
   height="100px"
   width="100px"
   fill="#E67700"
   version="1.1"
   x="0px"
   y="0px"
   viewBox="0 0 100 100"
   style="enable-background:new 0 0 100 100;"
   xml:space="preserve"
   id="svg5273"
   sodipodi:docname="noun_Hazard_2995249.svg"
   inkscape:version="0.92.4 (5da689c313, 2019-01-14)"><metadata
     id="metadata5279"><rdf:RDF><cc:Work
         rdf:about=""><dc:format>image/svg+xml</dc:format><dc:type
           rdf:resource="http://purl.org/dc/dcmitype/StillImage" /></cc:Work></rdf:RDF></metadata><defs
     id="defs5277" /><sodipodi:namedview
     pagecolor="#ffffff"
     bordercolor="#666666"
     borderopacity="1"
     objecttolerance="10"
     gridtolerance="10"
     guidetolerance="10"
     inkscape:pageopacity="0"
     inkscape:pageshadow="2"
     inkscape:window-width="999"
     inkscape:window-height="645"
     id="namedview5275"
     showgrid="false"
     inkscape:zoom="0.10429825"
     inkscape:cx="2660.3724"
     inkscape:cy="-458.89864"
     inkscape:window-x="0"
     inkscape:window-y="0"
     inkscape:window-maximized="0"
     inkscape:current-layer="svg5273" /><g
     id="g5271"
     style="image-rendering:auto"><g
       i:extraneous="self"
       id="g5269"
       style="opacity:0.75"
       inkscape:export-xdpi="100"
       inkscape:export-ydpi="100"><g
         id="g5265"
         style=""><path
           d="M5273.1,2400.1v-2c0-2.8-5-4-9.7-4s-9.7,1.3-9.7,4v2c0,1.8,0.7,3.6,2,4.9l5,4.9c0.3,0.3,0.4,0.6,0.4,1v6.4     c0,0.4,0.2,0.7,0.6,0.8l2.9,0.9c0.5,0.1,1-0.2,1-0.8v-7.2c0-0.4,0.2-0.7,0.4-1l5.1-5C5272.4,2403.7,5273.1,2401.9,5273.1,2400.1z      M5263.4,2400c-4.8,0-7.4-1.3-7.5-1.8v0c0.1-0.5,2.7-1.8,7.5-1.8c4.8,0,7.3,1.3,7.5,1.8C5270.7,2398.7,5268.2,2400,5263.4,2400z"
           id="path5257"
           style="" /><path
           d="M5268.4,2410.3c-0.6,0-1,0.4-1,1c0,0.6,0.4,1,1,1h4.3c0.6,0,1-0.4,1-1c0-0.6-0.4-1-1-1H5268.4z"
           id="path5259"
           style="" /><path
           d="M5272.7,2413.7h-4.3c-0.6,0-1,0.4-1,1c0,0.6,0.4,1,1,1h4.3c0.6,0,1-0.4,1-1C5273.7,2414.1,5273.3,2413.7,5272.7,2413.7z"
           id="path5261"
           style="" /><path
           d="M5272.7,2417h-4.3c-0.6,0-1,0.4-1,1c0,0.6,0.4,1,1,1h4.3c0.6,0,1-0.4,1-1C5273.7,2417.5,5273.3,2417,5272.7,2417z"
           id="path5263"
           style="" /></g><path
         d="M95,65.9L65.2,16C62,10.6,56.3,7.4,50,7.4c-6.3,0-12,3.2-15.2,8.6L5,65.9c-3.3,5.5-3.4,12.2-0.2,17.8    c3.2,5.6,8.9,9,15.4,9h59.6c6.5,0,12.2-3.3,15.4-9C98.3,78.1,98.3,71.4,95,65.9z M50,77.6c-3.3,0-5.9-2.6-5.9-5.9    c0-3.2,2.6-5.9,5.9-5.9c3.3,0,5.9,2.6,5.9,5.9C55.9,75,53.3,77.6,50,77.6z M56.3,35.1l-1.9,22.4c-0.1,1.2-0.6,2.2-1.5,2.9    c-0.8,0.7-1.8,1-2.8,1c-0.1,0-0.3,0-0.4,0c-2.1-0.2-3.8-1.8-3.9-3.9l-1.9-22.4c-0.1-1.7,0.4-3.3,1.4-4.6c1.1-1.3,2.6-2.1,4.3-2.2    c1.7-0.1,3.3,0.4,4.6,1.4c1.3,1.1,2.1,2.6,2.2,4.3C56.3,34.4,56.3,34.8,56.3,35.1z"
         id="path5267"
         style="" /></g></g></svg>